Coordinates
version=1
nRows=18
nColumns=22
inDegrees=yes

Units are S.I. units (second, meters, Newtons, ...)
If the header above contains a line with 'inDegrees', this indicates whether rotational values are in degrees (yes) or radians (no).

endheader
time	pelvis_tilt	pelvis_list	pelvis_rotation	pelvis_tx	pelvis_ty	pelvis_tz	hip_flexion_r	hip_adduction_r	hip_rotation_r	knee_angle_r	ankle_angle_r	subtalar_angle_r	hip_flexion_l	hip_adduction_l	hip_rotation_l	knee_angle_l	ankle_angle_l	subtalar_angle_l	lumbar_extension	lumbar_bending	lumbar_rotation
      0.01000000	     -6.63626673	      4.59423187	    -36.91487777	     -1.40367445	      0.88620724	     -0.30293914	     12.05923342	     -4.51073654	      3.16884485	    -12.38898138	     13.68748372	      4.36830651	     11.54715487	     -4.04752033	     -8.08374825	    -15.86340335	     14.02580641	      3.34321177	      3.18577279	     -2.60372229	     16.26409706
      0.02000000	     -6.66441907	      4.61891677	    -36.92972751	     -1.40373050	      0.88619313	     -0.30289254	     12.07597733	     -4.50889220	      3.16608829	    -12.33992409	     13.67729110	      4.36768215	     11.54203965	     -4.04841824	     -8.13290205	    -15.78327759	     14.01769652	      3.34439457	      3.21388222	     -2.59260826	     16.17032950
      0.03000000	     -6.71222084	      4.65230251	    -36.94009571	     -1.40376872	      0.88617475	     -0.30284591	     12.08714210	     -4.50266282	      3.17910723	    -12.23775517	     13.61976207	      4.36196315	     11.55346971	     -4.04952082	     -8.14359814	    -15.69172862	     13.96459446	      3.35374484	      3.26645359	     -2.57262498	     16.05760892
      0.04000000	     -6.75726020	      4.67662973	    -36.95651722	     -1.40380328	      0.88616152	     -0.30279541	     12.09638628	     -4.48934244	      3.19325716	    -12.14851087	     13.57895932	      4.35312070	     11.56257751	     -4.05923164	     -8.17135660	    -15.61436270	     13.93592692	      3.36027601	      3.30590731	     -2.54289228	     15.93137661
      0.05000000	     -6.80264196	      4.69721801	    -36.97894337	     -1.40383839	      0.88614929	     -0.30274987	     12.10428071	     -4.47154630	      3.21506867	    -12.05851781	     13.53546761	      4.34135570	     11.57757434	     -4.07299214	     -8.20074194	    -15.55332631	     13.91294212	      3.36462987	      3.33959164	     -2.50703526	     15.80184597
      0.06000000	     -6.85049170	      4.71416460	    -37.00924938	     -1.40388313	      0.88613253	     -0.30270857	     12.11443374	     -4.44760112	      3.24467427	    -11.96958531	     13.48808830	      4.32577120	     11.60255740	     -4.09316152	     -8.23251550	    -15.51207006	     13.89643848	      3.36594297	      3.37030662	     -2.46567502	     15.67760228
      0.07000000	     -6.87943459	      4.73134929	    -37.05591990	     -1.40394545	      0.88612183	     -0.30267106	     12.13613235	     -4.43395694	      3.26665687	    -11.92553266	     13.47218790	      4.31973542	     11.61103778	     -4.10286817	     -8.27573919	    -15.47312864	     13.89676841	      3.36358555	      3.37925989	     -2.43682177	     15.56821697
      0.08000000	     -6.95348065	      4.74432448	    -37.11644212	     -1.40407324	      0.88606019	     -0.30263408	     12.18115303	     -4.38043196	      3.33534780	    -11.84312839	     13.39104011	      4.28261965	     11.68785093	     -4.15400361	     -8.32499661	    -15.49506456	     13.90538670	      3.35163809	      3.42432821	     -2.37506943	     15.49253470
      0.09000000	     -6.97706063	      4.76132288	    -37.17921057	     -1.40418706	      0.88603691	     -0.30262562	     12.21048715	     -4.36718227	      3.37741112	    -11.80833648	     13.38475257	      4.27667025	     11.71011912	     -4.16272782	     -8.36676638	    -15.48606203	     13.90271356	      3.34607507	      3.42080384	     -2.35159612	     15.40923599
      0.10000000	     -7.04062123	      4.78371919	    -37.28560558	     -1.40440762	      0.88594883	     -0.30257018	     12.28312722	     -4.31667361	      3.50257800	    -11.75990647	     13.32756318	      4.25392167	     11.80144668	     -4.21208253	     -8.46127342	    -15.54840517	     13.91902880	      3.32059747	      3.45634720	     -2.30917738	     15.40323837
      0.11000000	     -7.08453175	      4.80588091	    -37.38973041	     -1.40461239	      0.88586628	     -0.30256168	     12.36268137	     -4.28331436	      3.60349839	    -11.75646349	     13.30566035	      4.23311240	     11.87470480	     -4.24314415	     -8.54539414	    -15.60395212	     13.94794405	      3.29643833	      3.46752223	     -2.27403039	     15.38523564
      0.12000000	     -7.12310718	      4.82848117	    -37.49763147	     -1.40481600	      0.88578359	     -0.30253832	     12.43948109	     -4.25238376	      3.70098740	    -11.75484904	     13.28386404	      4.21652137	     11.94435463	     -4.27183107	     -8.62737654	    -15.66239382	     13.97695876	      3.27084493	      3.47349399	     -2.24663022	     15.36998808
      0.13000000	     -7.15276153	      4.84733473	    -37.60676320	     -1.40500508	      0.88570636	     -0.30252910	     12.50904180	     -4.22576934	      3.79981481	    -11.75859558	     13.26839342	      4.20559195	     12.01086789	     -4.29768633	     -8.70833665	    -15.73444005	     14.00866250	      3.24488086	      3.46608970	     -2.21935268	     15.35411304
      0.14000000	     -7.17743012	      4.86587786	    -37.71640141	     -1.40518311	      0.88563071	     -0.30251987	     12.57670731	     -4.20232082	      3.89825161	    -11.76812109	     13.25518701	      4.19829685	     12.07666275	     -4.32123228	     -8.78958567	    -15.81462974	     14.04330902	      3.21762698	      3.45220080	     -2.19434716	     15.33692351
      0.15000000	     -7.19771288	      4.88452928	    -37.82451067	     -1.40534050	      0.88555771	     -0.30252057	     12.64359771	     -4.18336281	      3.99495340	    -11.78461164	     13.24540933	      4.19386670	     12.14145672	     -4.34091153	     -8.87033150	    -15.89981725	     14.07928480	      3.18830117	      3.43487229	     -2.17007044	     15.31836797
      0.16000000	     -7.19562798	      4.89482018	    -37.90727938	     -1.40543806	      0.88552938	     -0.30255549	     12.68161453	     -4.18041038	      4.05719805	    -11.80481316	     13.23485080	      4.19419372	     12.16832022	     -4.34063415	     -8.89591884	    -15.95086428	     14.09189209	      3.17749484	      3.39045744	     -2.15301214	     15.25712235
      0.17000000	     -7.21549875	      4.91473640	    -38.03299026	     -1.40558153	      0.88544770	     -0.30253219	     12.75584306	     -4.15882341	      4.17552902	    -11.83079072	     13.23429847	      4.19739711	     12.24307953	     -4.36758224	     -9.02704681	    -16.06593937	     14.14809668	      3.13430184	      3.38033554	     -2.12877124	     15.28490746
      0.18000000	     -7.22228440	      4.93359645	    -38.13858891	     -1.40567893	      0.88539395	     -0.30254889	     12.82175123	     -4.15168762	      4.27256693	    -11.87179646	     13.23000997	      4.20119213	     12.29176713	     -4.37516962	     -9.10417026	    -16.14664041	     14.17746506	      3.09963506	      3.35774176	     -2.11181794	     15.28578076
